<svg width="216" height="214" viewBox="0 0 216 214" fill="none" xmlns="http://www.w3.org/2000/svg">
<path fill-rule="evenodd" clip-rule="evenodd" d="M212.467 79.463C227.464 136.052 192.988 194.284 135.464 209.529C77.9402 224.773 19.1505 191.257 4.15382 134.668C-10.8428 78.0796 23.6325 19.8472 81.1566 4.60265C113.295 -3.91437 145.828 2.78867 170.899 20.2321L158.301 35.0145C138.087 21.4196 112.338 16.2772 86.9405 23.0079C40.1729 35.4018 12.3075 83.3617 24.7015 130.129C37.0954 176.897 85.0553 204.762 131.823 192.368C178.59 179.974 206.456 132.014 194.062 85.2469C193.979 84.934 193.894 84.622 193.808 84.3109L208.397 67.1921C209.985 71.1468 211.348 75.2407 212.467 79.463ZM129 77.1362C129 99.2948 123.227 136.426 108.316 136.426C93.4041 136.426 87 99.2948 87 77.1362C87 55 93.3911 55 108.271 55H108.316H108.361C123.239 55 129 55 129 77.1362ZM108 172C114.784 172 120.283 166.514 120.283 159.747C120.283 152.979 114.784 147.493 108 147.493C101.216 147.493 95.717 152.979 95.717 159.747C95.717 166.514 101.216 172 108 172Z" fill="black"/>
</svg>
