<svg width="21" height="21" viewBox="0 0 21 21" fill="none" xmlns="http://www.w3.org/2000/svg">
<path d="M6.42857 2.42857C5.10249 2.42857 3.83072 2.95536 2.89304 3.89304C1.95536 4.83072 1.42857 6.10249 1.42857 7.42857V14.5714C1.42857 15.8975 1.95536 17.1693 2.89304 18.107C3.83072 19.0446 5.10249 19.5714 6.42857 19.5714H13.5714C14.8975 19.5714 16.1693 19.0446 17.107 18.107C18.0446 17.1693 18.5714 15.8975 18.5714 14.5714V11C18.5714 10.8106 18.6467 10.6289 18.7806 10.4949C18.9146 10.361 19.0963 10.2857 19.2857 10.2857C19.4752 10.2857 19.6568 10.361 19.7908 10.4949C19.9247 10.6289 20 10.8106 20 11V14.5714C20 16.2764 19.3227 17.9115 18.1171 19.1171C16.9115 20.3227 15.2764 21 13.5714 21H6.42857C4.72361 21 3.08848 20.3227 1.88288 19.1171C0.677294 17.9115 0 16.2764 0 14.5714V7.42857C0 5.72361 0.677294 4.08848 1.88288 2.88288C3.08848 1.67729 4.72361 1 6.42857 1H10C10.1894 1 10.3711 1.07525 10.5051 1.20921C10.639 1.34316 10.7143 1.52485 10.7143 1.71429C10.7143 1.90373 10.639 2.08541 10.5051 2.21936C10.3711 2.35332 10.1894 2.42857 10 2.42857H6.42857Z" fill="white"/>
<path d="M21 4C21 5.06087 20.5786 6.07828 19.8284 6.82843C19.0783 7.57857 18.0609 8 17 8C15.9391 8 14.9217 7.57857 14.1716 6.82843C13.4214 6.07828 13 5.06087 13 4C13 2.93913 13.4214 1.92172 14.1716 1.17157C14.9217 0.421427 15.9391 0 17 0C18.0609 0 19.0783 0.421427 19.8284 1.17157C20.5786 1.92172 21 2.93913 21 4Z" fill="#FFF800"/>
<path d="M9 14.7508C9 14.5867 9.02587 14.4243 9.07612 14.2727C9.12638 14.1212 9.20003 13.9835 9.29289 13.8674C9.38575 13.7514 9.49599 13.6594 9.61732 13.5967C9.73864 13.5339 9.86868 13.5016 10 13.5016C10.1313 13.5016 10.2614 13.5339 10.3827 13.5967C10.504 13.6594 10.6142 13.7514 10.7071 13.8674C10.8 13.9835 10.8736 14.1212 10.9239 14.2727C10.9741 14.4243 11 14.5867 11 14.7508C11 15.0821 10.8946 15.3998 10.7071 15.6341C10.5196 15.8684 10.2652 16 10 16C9.73478 16 9.48043 15.8684 9.29289 15.6341C9.10536 15.3998 9 15.0821 9 14.7508ZM9.098 7.24922C9.08468 7.09162 9.09804 6.93228 9.1372 6.78155C9.17636 6.63081 9.24045 6.49204 9.32532 6.37425C9.41018 6.25646 9.51392 6.16227 9.62981 6.09779C9.7457 6.03332 9.87114 6 9.998 6C10.1249 6 10.2503 6.03332 10.3662 6.09779C10.4821 6.16227 10.5858 6.25646 10.6707 6.37425C10.7555 6.49204 10.8196 6.63081 10.8588 6.78155C10.898 6.93228 10.9113 7.09162 10.898 7.24922L10.548 11.6302C10.5362 11.8023 10.4732 11.9627 10.3714 12.0795C10.2695 12.1963 10.1363 12.2612 9.998 12.2612C9.85973 12.2612 9.72649 12.1963 9.62464 12.0795C9.5228 11.9627 9.45976 11.8023 9.448 11.6302L9.098 7.24922Z" fill="white"/>
</svg>
