<svg width="222" height="213" viewBox="0 0 222 213" fill="none" xmlns="http://www.w3.org/2000/svg">
<path fill-rule="evenodd" clip-rule="evenodd" d="M134.818 208.605C192.342 193.361 226.817 135.128 211.821 78.5396C210.702 74.3173 209.339 70.2235 207.751 66.2687L193.162 83.3875C193.248 83.6987 193.333 84.0107 193.416 84.3235C205.81 131.091 177.944 179.051 131.177 191.445C84.409 203.839 36.4492 175.973 24.0552 129.206C11.6613 82.4383 39.5267 34.4784 86.2942 22.0845C111.692 15.3539 137.441 20.4962 157.655 34.0911L170.253 19.3087C145.182 1.8653 112.649 -4.83774 80.5104 3.67928C22.9863 18.9238 -11.4891 77.1562 3.50759 133.745C18.5042 190.334 77.2939 223.85 134.818 208.605ZM218.046 24.8288C222.432 29.1288 222.567 36.0815 218.348 40.3582C197.206 61.7896 167.021 92.2918 145.195 114.129C134.311 125.02 125.419 133.842 120.778 138.29C119.63 139.39 118.64 140.321 117.914 140.967C117.633 141.218 117.075 141.711 116.476 142.147C116.304 142.272 115.984 142.499 115.571 142.745L115.549 142.758C115.315 142.899 114.164 143.589 112.547 143.982C111.803 144.162 109.493 144.667 106.663 143.796C103.153 142.716 100.51 140.052 99.3406 136.834C99.0356 136.479 98.7497 136.1 98.4854 135.698C93.2391 127.727 85.7725 116.344 80.4364 108.122C77.7908 104.046 75.6006 100.642 74.4801 98.833C74.2098 98.3968 73.9241 97.9286 73.698 97.5321L73.6898 97.5178C73.618 97.3921 73.3425 96.91 73.0875 96.3396C73.0096 96.1655 72.8552 95.8103 72.6992 95.3506L72.6909 95.3265C72.6053 95.0783 72.1404 93.7305 72.11 91.9717C72.0957 91.147 72.1193 88.6108 73.7722 85.9621C75.9578 82.4596 79.629 80.8359 82.9964 80.8199C85.5682 80.8077 87.4286 81.7056 88.047 82.0203C88.8575 82.4328 89.4446 82.8589 89.7427 83.0861C90.6917 83.8096 91.3372 84.5636 91.3923 84.6281L91.3959 84.6322C91.5917 84.855 91.748 85.0496 91.8367 85.1616C92.0233 85.3973 92.2008 85.6354 92.34 85.825C92.632 86.2225 92.9987 86.7386 93.4254 87.3476C93.9662 88.1196 94.3948 88.9364 94.7146 89.7785C95.7858 91.455 97.2004 93.6464 98.8476 96.1844C102.602 101.969 107.43 109.348 111.789 115.989C116.422 111.424 122.474 105.399 129.411 98.4592C151.187 76.671 181.334 46.2077 202.466 24.7865C206.685 20.5099 213.66 20.5288 218.046 24.8288Z" fill="black"/>
</svg>
